<?xml version="1.0" encoding="utf-8"?>
<!-- Generator: Adobe Illustrator 27.0.0, SVG Export Plug-In . SVG Version: 6.00 Build 0)  -->
<svg version="1.1" id="Layer_2_00000018197206785324274020000012306238348168651949_"
	 xmlns="http://www.w3.org/2000/svg" xmlns:xlink="http://www.w3.org/1999/xlink" x="0px" y="0px" viewBox="0 0 2003 554"
	 style="enable-background:new 0 0 2003 554;" xml:space="preserve">
<style type="text/css">
	.st0{fill:#FFFFFF;}
	.st1{font-family:'Bungee-Regular';}
	.st2{font-size:149.496px;}
	.st3{font-family:'GloriaHallelujah';}
	.st4{font-size:91.7743px;}
</style>
<path class="st0" d="M61,381.9c4.9,9.2,21.2,31.6,37.9,46.6c3.8,3.3,7.4,6.7,11.9,9c14.2,6.9,40.4,19.7,30.6-31
	c-25-56.3-136.7-231.4-25.7-332.2s228.2,28.9,238.4,53.1c4.1,12.3,0.8,21.3-4.4,27.7c-6.8,8.3-37.8,17.1-60.5,4.1
	c-22.7-13-71.9-41.2-103.2-33.3c-14.1,1.6-69.5,35.8-66.1,125.8c3.5,41.5,24.3,84.4,41.9,112.6c21.9,35.1-4.7,81.3-21.1,86
	c-5.5,0.8-28.9,14.9-68-22.6c-5.1-5.8-21.2-33.4-18.8-44.6C54.6,379.4,59.3,378.7,61,381.9L61,381.9z"/>
<path class="st0" d="M190.7,217.7v100.8c0,0,2.4,21.9,20.3,9.4s64.1-57.1,64.1-57.1s18,19.6,0,28.9C257,309,243,327,243,327
	s-8.6,12.5-6.2,13.3c2.4,0.8,21.9-18.8,26.6-25.8c5.5-6.3,24.2-17.2,32.1-27.4c7.8-10.1,2.4-27.4-25.8-48.4
	c-3.9-3.9-9.4-9.4-20.3-5.5c-0.3,0.3-2.2,1.3-3.1,1.7c-0.3,0.2-0.4,0.2-0.4,0.2l-4.7-0.8l-9.4,7.8l29.7,18c0,0-40.6,46.1-47.7,50
	v-86.8l7.8,3.9l14.1-14.1c0,0-37.5-34.4-71.1-0.8c0,0-0.8,0.8,0.8,1.6c2.4,0,8.6-1.6,8.6-1.6l-8.6,7.8v0.8h0.8l12.5-4.7
	C178.6,216.5,180.9,218.1,190.7,217.7L190.7,217.7z"/>
<path class="st0" d="M572.8,175.1c-4.8-9.2-21.2-31.6-37.9-46.6c-3.8-3.3-7.4-6.7-11.9-9c-14.2-6.9-40.5-19.7-30.6,31
	c25,56.3,136.8,231.4,25.8,332.1S290,453.7,279.9,429.5c-4.1-12.3-0.8-21.3,4.4-27.7c6.8-8.3,37.8-17.1,60.5-4.1
	c22.7,13,71.9,41.2,103.2,33.4c14.1-1.6,69.5-35.8,66.1-125.8c-3.5-41.5-24.3-84.4-41.9-112.6c-21.9-35.1,4.7-81.3,21.1-86
	c5.5-0.8,28.9-14.9,68,22.6c5.1,5.8,21.2,33.4,18.8,44.6C579.2,177.6,574.5,178.3,572.8,175.1L572.8,175.1z"/>
<path class="st0" d="M430.6,320.6V219.7c0,0-2.4-21.9-20.3-9.4c-17.9,12.5-64.1,57.1-64.1,57.1s-18-19.6,0-28.9
	c18-9.4,32.1-27.4,32.1-27.4s8.6-12.5,6.2-13.3c-2.4-0.8-21.9,18.8-26.6,25.8c-5.5,6.3-24.2,17.2-32.1,27.4
	c-7.8,10.1-2.4,27.4,25.8,48.4c3.9,3.9,9.4,9.4,20.3,5.5c0.3-0.3,2.2-1.3,3.1-1.7c0.3-0.2,0.4-0.2,0.4-0.2l4.7,0.8l9.4-7.8l-29.7-18
	c0,0,40.6-46.1,47.6-50c0,19.6,0,86.8,0,86.8l-7.8-3.9L385.6,325c0,0,37.5,34.4,71.1,0.8c0,0,0.8-0.8-0.8-1.6
	c-2.4,0-8.6,1.6-8.6,1.6l8.6-7.8v-0.8h-0.8l-12.5,4.7C442.8,321.8,440.4,320.2,430.6,320.6L430.6,320.6z"/>
<text transform="matrix(1 0 0 1 725.7146 268.7328)" class="st0 st1 st2">DIBBO DAS AVI</text>
<text transform="matrix(1 0 0 1 725.7146 365.2279)" class="st0 st3 st4">The guy who knows nothing</text>
</svg>
