<?xml version="1.0" encoding="utf-8"?>
<!-- Generator: Adobe Illustrator 27.0.0, SVG Export Plug-In . SVG Version: 6.00 Build 0)  -->
<svg version="1.1" id="Layer_2_00000018197206785324274020000012306238348168651949_"
	 xmlns="http://www.w3.org/2000/svg" xmlns:xlink="http://www.w3.org/1999/xlink" x="0px" y="0px" viewBox="0 0 2003 554"
	 style="enable-background:new 0 0 2003 554;" xml:space="preserve">
<style type="text/css">
	.st0{fill:#FFFFFF;}
	.st1{fill:#090307;}
	.st2{font-family:'BaiJamjuree-Bold';}
	.st3{font-size:171.04px;}
	.st4{font-size:92px;}
</style>
<path class="st0" d="M18.6,1025.9c5.6,10.5,24.2,36.2,43.4,53.3c4.3,3.8,8.5,7.7,13.6,10.3c16.2,7.9,46.2,22.5,35-35.5
	C82,989.6-45.8,789.3,81.2,673.9s261.1,33.1,272.7,60.8c4.7,14.1,0.9,24.4-5,31.7c-7.8,9.5-43.2,19.6-69.2,4.7S197.4,724,161.6,733
	c-16.1,1.8-79.5,41-75.6,143.9c4,47.5,27.8,96.6,47.9,128.8c25,40.2-5.4,93-24.1,98.4c-6.3,0.9-33.1,17-77.8-25.9
	c-5.8-6.6-24.2-38.2-21.5-51C11.3,1023.1,16.7,1022.3,18.6,1025.9L18.6,1025.9z"/>
<path class="st0" d="M167,838v115.3c0,0,2.7,25,23.2,10.7s73.3-65.3,73.3-65.3s20.6,22.4,0,33.1c-20.6,10.7-36.7,31.3-36.7,31.3
	s-9.8,14.3-7.1,15.2s25-21.5,30.4-29.5c6.3-7.2,27.7-19.7,36.7-31.3c8.9-11.6,2.7-31.3-29.5-55.4c-4.5-4.5-10.7-10.7-23.2-6.3
	c-0.3,0.3-2.5,1.5-3.5,2c-0.3,0.2-0.5,0.2-0.5,0.2l-5.4-0.9l-10.7,8.9l34,20.6c0,0-46.5,52.8-54.6,57.2v-99.3l8.9,4.5l16.1-16.1
	c0,0-42.9-39.4-81.4-0.9c0,0-0.9,0.9,0.9,1.8c2.7,0,9.8-1.8,9.8-1.8l-9.8,8.9v0.9h0.9l14.3-5.4C153.1,836.7,155.8,838.5,167,838
	L167,838z"/>
<path class="st0" d="M604.2,789.3c-5.5-10.5-24.2-36.2-43.4-53.3c-4.3-3.8-8.5-7.7-13.6-10.3c-16.2-7.9-46.3-22.5-35,35.5
	c28.6,64.4,156.5,264.7,29.5,380s-261.1-33.1-272.7-60.8c-4.7-14.1-0.9-24.4,5-31.7c7.8-9.5,43.2-19.6,69.2-4.7
	c26,14.9,82.3,47.1,118.1,38.2c16.1-1.8,79.5-41,75.6-143.9c-4-47.5-27.8-96.6-47.9-128.8c-25-40.2,5.4-93,24.1-98.4
	c6.3-0.9,33.1-17,77.8,25.9c5.8,6.6,24.2,38.2,21.5,51C611.5,792.2,606.1,793,604.2,789.3L604.2,789.3z"/>
<path class="st0" d="M441.5,955.8V840.4c0,0-2.7-25-23.2-10.7S345,895,345,895s-20.6-22.4,0-33.1c20.6-10.7,36.7-31.3,36.7-31.3
	s9.8-14.3,7.1-15.2c-2.7-0.9-25,21.5-30.4,29.5c-6.3,7.2-27.7,19.7-36.7,31.3c-8.9,11.6-2.7,31.3,29.5,55.4
	c4.5,4.5,10.7,10.7,23.2,6.3c0.3-0.3,2.5-1.5,3.5-2c0.3-0.2,0.5-0.2,0.5-0.2l5.4,0.9l10.7-8.9l-34-20.6c0,0,46.5-52.8,54.5-57.2
	c0,22.4,0,99.3,0,99.3l-8.9-4.5l-16.1,16.1c0,0,42.9,39.4,81.4,0.9c0,0,0.9-0.9-0.9-1.8c-2.7,0-9.8,1.8-9.8,1.8l9.8-8.9v-0.9h-0.9
	l-14.3,5.4C455.4,957.1,452.7,955.3,441.5,955.8L441.5,955.8z"/>
<text transform="matrix(1 0 0 1 779.1141 896.4421)" class="st1 st2 st3">DIBBO DAS AVI</text>
<text transform="matrix(1 0 0 1 779.1141 1006.8422)" class="st1 st2 st4">The guy who knows nothing</text>
<g id="Layer_1-2_00000111911623197779265560000005053655568007184524_">
	<path class="st1" d="M8.4,395.3c5.6,10.5,24.2,36.2,43.4,53.3c4.3,3.8,8.5,7.7,13.6,10.3c16.2,7.9,46.2,22.5,35-35.5
		C71.8,359-56,158.7,70.9,43.3s261.1,33.1,272.7,60.8c4.7,14.1,0.9,24.4-5,31.7c-7.8,9.5-43.2,19.6-69.2,4.7s-82.3-47.1-118.1-38.2
		c-16.1,1.8-79.5,41-75.6,143.9c4,47.5,27.8,96.6,47.9,128.8c25,40.2-5.4,93-24.1,98.4c-6.3,0.9-33.1,17-77.8-25.9
		c-5.8-6.6-24.2-38.2-21.5-51C1.1,392.5,6.5,391.7,8.4,395.3L8.4,395.3z"/>
	<path class="st1" d="M156.8,207.4v115.4c0,0,2.7,25,23.2,10.7s73.3-65.3,73.3-65.3s20.6,22.4,0,33.1s-36.7,31.3-36.7,31.3
		s-9.8,14.3-7.1,15.2s25-21.5,30.4-29.5c6.3-7.1,27.7-19.7,36.7-31.3s2.7-31.3-29.5-55.4c-4.5-4.5-10.7-10.7-23.2-6.3
		c-0.3,0.3-2.5,1.5-3.5,2c-0.3,0.1-0.5,0.2-0.5,0.2l-5.4-0.9l-10.7,8.9l34,20.6c0,0-46.5,52.8-54.6,57.2v-99.3l8.9,4.5l16.1-16.1
		c0,0-42.9-39.4-81.4-0.9c0,0-0.9,0.9,0.9,1.8c2.7,0,9.8-1.8,9.8-1.8l-9.8,8.9v0.9h0.9l14.3-5.4
		C142.9,206.1,145.6,207.9,156.8,207.4L156.8,207.4z"/>
	<path class="st1" d="M594,158.7c-5.5-10.5-24.2-36.2-43.4-53.3c-4.3-3.8-8.5-7.7-13.6-10.3c-16.2-7.9-46.2-22.5-35,35.5
		c28.6,64.4,156.5,264.7,29.5,380s-261.1-33.1-272.7-60.8c-4.7-14.1-0.9-24.4,5-31.7c7.8-9.5,43.2-19.6,69.2-4.7
		c26,14.9,82.3,47.1,118.1,38.2c16.1-1.8,79.5-41,75.6-143.9c-4-47.5-27.8-96.6-47.9-128.9c-25-40.2,5.4-93,24.1-98.4
		c6.3-0.9,33.1-17,77.8,25.9c5.8,6.6,24.2,38.2,21.5,51C601.3,161.6,595.9,162.4,594,158.7L594,158.7z"/>
	<path class="st1" d="M431.3,325.1V209.8c0,0-2.7-25-23.2-10.7c-20.6,14.3-73.3,65.3-73.3,65.3s-20.6-22.4,0-33.1
		s36.7-31.3,36.7-31.3s9.8-14.3,7.1-15.2c-2.7-0.9-25,21.5-30.4,29.5c-6.3,7.1-27.7,19.7-36.7,31.3c-8.9,11.6-2.7,31.3,29.5,55.4
		c4.5,4.5,10.7,10.7,23.2,6.3c0.3-0.3,2.5-1.5,3.5-2c0.3-0.1,0.5-0.2,0.5-0.2l5.4,0.9l10.7-8.9l-34-20.6c0,0,46.5-52.8,54.5-57.2
		c0,22.4,0,99.3,0,99.3L396,314l-16.1,16.1c0,0,42.9,39.4,81.4,0.9c0,0,0.9-0.9-0.9-1.8c-2.7,0-9.8,1.8-9.8,1.8l9.8-8.9v-0.9h-0.9
		l-14.3,5.4C445.2,326.5,442.5,324.7,431.3,325.1L431.3,325.1z"/>
	<text transform="matrix(1 0 0 1 768.91 265.8299)" class="st1 st2 st3">DIBBO DAS AVI</text>
	<text transform="matrix(1 0 0 1 768.91 376.2299)" class="st1 st2 st4">The guy who knows nothing</text>
</g>
</svg>
