<?xml version="1.0" encoding="utf-8"?>
<!-- Generator: Adobe Illustrator 27.0.0, SVG Export Plug-In . SVG Version: 6.00 Build 0)  -->
<svg version="1.1" id="Layer_2_00000018197206785324274020000012306238348168651949_"
	 xmlns="http://www.w3.org/2000/svg" xmlns:xlink="http://www.w3.org/1999/xlink" x="0px" y="0px" viewBox="0 0 2003 554"
	 style="enable-background:new 0 0 2003 554;" xml:space="preserve">
<style type="text/css">
	.st0{fill:#FFFFFF;}
</style>
<path class="st0" d="M61,381.9c4.9,9.2,21.2,31.6,37.9,46.6c3.8,3.3,7.4,6.7,11.9,9c14.2,6.9,40.4,19.7,30.6-31
	c-25-56.3-136.7-231.4-25.7-332.2s228.2,28.9,238.4,53.1c4.1,12.3,0.8,21.3-4.4,27.7c-6.8,8.3-37.8,17.1-60.5,4.1
	c-22.7-13-71.9-41.2-103.2-33.3c-14.1,1.6-69.5,35.8-66.1,125.8c3.5,41.5,24.3,84.4,41.9,112.6c21.9,35.1-4.7,81.3-21.1,86
	c-5.5,0.8-28.9,14.9-68-22.6c-5.1-5.8-21.2-33.4-18.8-44.6C54.6,379.4,59.3,378.7,61,381.9L61,381.9z"/>
<path class="st0" d="M190.7,217.7v100.8c0,0,2.4,21.9,20.3,9.4s64.1-57.1,64.1-57.1s18,19.6,0,28.9C257,309,243,327,243,327
	s-8.6,12.5-6.2,13.3c2.4,0.8,21.9-18.8,26.6-25.8c5.5-6.3,24.2-17.2,32.1-27.4c7.8-10.1,2.4-27.4-25.8-48.4
	c-3.9-3.9-9.4-9.4-20.3-5.5c-0.3,0.3-2.2,1.3-3.1,1.7c-0.3,0.2-0.4,0.2-0.4,0.2l-4.7-0.8l-9.4,7.8l29.7,18c0,0-40.6,46.1-47.7,50
	v-86.8l7.8,3.9l14.1-14.1c0,0-37.5-34.4-71.1-0.8c0,0-0.8,0.8,0.8,1.6c2.4,0,8.6-1.6,8.6-1.6l-8.6,7.8v0.8h0.8l12.5-4.7
	C178.6,216.5,180.9,218.1,190.7,217.7L190.7,217.7z"/>
<path class="st0" d="M572.8,175.1c-4.8-9.2-21.2-31.6-37.9-46.6c-3.8-3.3-7.4-6.7-11.9-9c-14.2-6.9-40.5-19.7-30.6,31
	c25,56.3,136.8,231.4,25.8,332.1S290,453.7,279.9,429.5c-4.1-12.3-0.8-21.3,4.4-27.7c6.8-8.3,37.8-17.1,60.5-4.1
	c22.7,13,71.9,41.2,103.2,33.4c14.1-1.6,69.5-35.8,66.1-125.8c-3.5-41.5-24.3-84.4-41.9-112.6c-21.9-35.1,4.7-81.3,21.1-86
	c5.5-0.8,28.9-14.9,68,22.6c5.1,5.8,21.2,33.4,18.8,44.6C579.2,177.6,574.5,178.3,572.8,175.1L572.8,175.1z"/>
<path class="st0" d="M430.6,320.6V219.7c0,0-2.4-21.9-20.3-9.4c-17.9,12.5-64.1,57.1-64.1,57.1s-18-19.6,0-28.9
	c18-9.4,32.1-27.4,32.1-27.4s8.6-12.5,6.2-13.3c-2.4-0.8-21.9,18.8-26.6,25.8c-5.5,6.3-24.2,17.2-32.1,27.4
	c-7.8,10.1-2.4,27.4,25.8,48.4c3.9,3.9,9.4,9.4,20.3,5.5c0.3-0.3,2.2-1.3,3.1-1.7c0.3-0.2,0.4-0.2,0.4-0.2l4.7,0.8l9.4-7.8l-29.7-18
	c0,0,40.6-46.1,47.6-50c0,19.6,0,86.8,0,86.8l-7.8-3.9L385.6,325c0,0,37.5,34.4,71.1,0.8c0,0,0.8-0.8-0.8-1.6
	c-2.4,0-8.6,1.6-8.6,1.6l8.6-7.8v-0.8h-0.8l-12.5,4.7C442.8,321.8,440.4,320.2,430.6,320.6L430.6,320.6z"/>
<g>
	<path class="st0" d="M741.4,268.7c-3.7,0-5.4-1.6-5.4-5.4v-96.9c0-3.7,1.6-5.4,5.4-5.4h50.4c25.1,0,36.8,9.7,36.8,30.5v46.6
		c0,20.8-11.7,30.5-36.8,30.5H741.4z M770,240.5h17.8c4.8,0,7-2.2,7-7.3v-36.3c0-4.9-2.2-7.2-7-7.2H770V240.5z"/>
	<path class="st0" d="M845.2,263.4v-17.8c0-3.7,1.6-5.4,5.4-5.4h14.8V190h-14.8c-3.7,0-5.4-1.6-5.4-5.4v-18.1c0-3.7,1.6-5.4,5.4-5.4
		h63.7c3.7,0,5.4,1.6,5.4,5.4v18.1c0,3.7-1.6,5.4-5.4,5.4h-14.5v50.2h14.5c3.7,0,5.4,1.6,5.4,5.4v17.8c0,3.7-1.6,5.4-5.4,5.4h-63.7
		C846.8,268.7,845.2,267.1,845.2,263.4z"/>
	<path class="st0" d="M943.4,268.7c-3.7,0-5.4-1.6-5.4-5.4v-96.9c0-3.7,1.6-5.4,5.4-5.4h47.7c19.6,0,28.7,7.2,28.7,22.9v7.2
		c0,8.4-2.8,13.6-8.8,16.1c12.9,1.2,18.8,8.5,18.8,23.2v13.8c0,16.7-9.1,24.5-29,24.5H943.4z M971.6,202.7h12.7c3.9,0,5.7-1.9,5.7-6
		v-4.2c0-4-1.8-6-5.7-6h-12.7V202.7z M971.6,243.3h19.4c3.9,0,5.7-1.9,5.7-6v-5.8c0-4-1.8-5.8-5.7-5.8h-19.4V243.3z"/>
	<path class="st0" d="M1051.8,268.7c-3.7,0-5.4-1.6-5.4-5.4v-96.9c0-3.7,1.6-5.4,5.4-5.4h47.7c19.6,0,28.7,7.2,28.7,22.9v7.2
		c0,8.4-2.8,13.6-8.8,16.1c12.9,1.2,18.8,8.5,18.8,23.2v13.8c0,16.7-9.1,24.5-29,24.5H1051.8z M1080,202.7h12.7c3.9,0,5.7-1.9,5.7-6
		v-4.2c0-4-1.8-6-5.7-6H1080V202.7z M1080,243.3h19.4c3.9,0,5.7-1.9,5.7-6v-5.8c0-4-1.8-5.8-5.7-5.8H1080V243.3z"/>
	<path class="st0" d="M1199.6,271c-37.4,0-46.5-12.3-46.5-30.5v-51c0-18.2,9.1-30.6,46.5-30.6c37.4,0,46.3,12.4,46.3,30.6v51
		C1246,258.7,1237,271,1199.6,271z M1199.6,242.1c10.9,0,12.6-3,12.6-7v-40.2c0-3.9-1.6-6.9-12.6-6.9c-10.8,0-12.6,3-12.6,6.9v40.2
		C1187.1,239.1,1188.8,242.1,1199.6,242.1z"/>
	<path class="st0" d="M1304,268.7c-3.7,0-5.4-1.6-5.4-5.4v-96.9c0-3.7,1.6-5.4,5.4-5.4h50.4c25.1,0,36.8,9.7,36.8,30.5v46.6
		c0,20.8-11.7,30.5-36.8,30.5H1304z M1332.5,240.5h17.8c4.8,0,7-2.2,7-7.3v-36.3c0-4.9-2.2-7.2-7-7.2h-17.8V240.5z"/>
	<path class="st0" d="M1435.2,268.7h-22c-3.7,0-5.4-1.6-5.4-5.4v-39.5c0-6,1.8-13.5,5.8-23.9l13-33.9c1.2-3.4,3.6-4.9,7.6-4.9h40.2
		c3.9,0,6.3,1.5,7.5,4.9l13,33.9c4,10.5,5.8,17.9,5.8,23.9v39.5c0,3.7-1.6,5.4-5.4,5.4h-22.6c-4,0-5.8-1.6-5.8-5.4v-20.9h-26.5v20.9
		C1440.6,267.1,1438.9,268.7,1435.2,268.7z M1442.1,215.2h23.5l-7-22.7c-0.7-1.8-1.6-2.5-2.8-2.5h-3.7c-1.2,0-2.1,0.7-2.8,2.5
		L1442.1,215.2z"/>
	<path class="st0" d="M1521.9,268.7c-3.7,0-5.4-1.6-5.4-5.4v-17.5c0-3.7,1.6-5.4,5.4-5.4h40.2c2.5,0,3.9-1.9,3.9-4.3
		c0-3.4-1.3-4.8-3.9-5.1l-22.4-3.1c-14.1-2.1-23.2-8.1-23.2-24.8v-15.7c0-17,11.5-26.3,30.9-26.3h41.9c3.7,0,5.4,1.6,5.4,5.4v17.8
		c0,3.7-1.6,5.4-5.4,5.4h-34.8c-2.5,0-4,1.8-4,4.5s1.5,4.5,4,4.8l22.3,3c14.1,2.1,23.3,8.1,23.3,24.8v15.7c0,17-11.7,26.3-30.9,26.3
		H1521.9z"/>
	<path class="st0" d="M1674.4,268.7h-22c-3.7,0-5.4-1.6-5.4-5.4v-39.5c0-6,1.8-13.5,5.8-23.9l13-33.9c1.2-3.4,3.6-4.9,7.6-4.9h40.2
		c3.9,0,6.3,1.5,7.5,4.9l13,33.9c4,10.5,5.8,17.9,5.8,23.9v39.5c0,3.7-1.6,5.4-5.4,5.4h-22.6c-4,0-5.8-1.6-5.8-5.4v-20.9h-26.5v20.9
		C1679.8,267.1,1678.1,268.7,1674.4,268.7z M1681.3,215.2h23.5l-7-22.7c-0.7-1.8-1.6-2.5-2.8-2.5h-3.7c-1.2,0-2.1,0.7-2.8,2.5
		L1681.3,215.2z"/>
	<path class="st0" d="M1781.7,268.7c-3.9,0-6.1-1.2-7.6-4.9l-14.6-36.6c-3.6-9-4.8-11.8-4.8-21.2v-39.5c0-3.7,1.6-5.4,5.4-5.4h23.8
		c3.7,0,5.8,1.6,5.8,5.4v41.3c0,2.1,0.4,3.9,1.2,6.1l7,20.9c0.6,1.9,1.2,2.5,2.8,2.5h1.6c1.6,0,2.2-0.6,2.8-2.5l7-21.1
		c0.7-2.2,1.2-4,1.2-6.1v-41.1c0-3.7,1.6-5.4,5.4-5.4h23.5c3.9,0,5.4,1.6,5.4,5.4v39.5c0,9.4-1.2,12.3-4.8,21.2l-14.6,36.6
		c-1.5,3.7-3.7,4.9-7.6,4.9H1781.7z"/>
	<path class="st0" d="M1863.7,263.4v-17.8c0-3.7,1.6-5.4,5.4-5.4h14.8V190H1869c-3.7,0-5.4-1.6-5.4-5.4v-18.1c0-3.7,1.6-5.4,5.4-5.4
		h63.7c3.7,0,5.4,1.6,5.4,5.4v18.1c0,3.7-1.6,5.4-5.4,5.4h-14.5v50.2h14.5c3.7,0,5.4,1.6,5.4,5.4v17.8c0,3.7-1.6,5.4-5.4,5.4H1869
		C1865.3,268.7,1863.7,267.1,1863.7,263.4z"/>
</g>
<g>
	<path class="st0" d="M762.3,311.5c-0.2-0.8-0.7-1.4-1.4-1.7c-0.7-0.3-1.4-0.5-2.2-0.5c-0.8,0-1.6,0-2.4,0.1
		c-0.8,0.1-1.4,0.2-1.8,0.2c-1-0.1-2.8-0.2-5.3-0.4c-2.5-0.2-5.2-0.4-8.1-0.6c-2.9-0.2-5.6-0.4-8.1-0.6c-2.5-0.2-4.3-0.3-5.3-0.4
		c0-0.1,0-0.4-0.1-0.9c-0.1-0.5-0.1-0.8-0.1-1c0-0.8,0.1-1.6,0.2-2.2c0.1-0.7,0.7-1.2,1.7-1.5c5.6,0.1,11.2,0.1,16.6-0.1
		c5.5-0.2,10.9-0.4,16.4-0.8c5.5-0.3,10.9-0.6,16.4-0.9c5.5-0.3,11-0.4,16.5-0.4c0,2.3-0.5,3.9-1.6,5c-1.1,1-2.4,1.7-4,2.1
		c-1.6,0.4-3.3,0.5-5.2,0.4c-1.9-0.1-3.8,0-5.5,0.1c-1.8,0.1-3.3,0.5-4.7,1c-1.3,0.6-2.2,1.6-2.6,3.1c-0.1,0.4-0.1,1-0.2,2.1
		c-0.1,1-0.1,2.1-0.1,3.2c0,1.1-0.1,2.2-0.1,3.2c0,1,0,1.7,0,2.1c0,3.4,0.4,6.8,1.3,10.1c0.9,3.3,1.8,6.6,2.9,9.9
		c1,3.3,2,6.5,2.9,9.8c0.9,3.3,1.3,6.6,1.3,9.9c0,2.5-1.4,3.8-4.3,3.8c-1.7,0-3.3-1.2-4.6-3.6c-1.3-2.4-2.5-5.4-3.5-9.1
		c-1-3.7-1.8-7.7-2.4-12.1c-0.6-4.4-1.1-8.5-1.5-12.5c-0.4-4-0.7-7.5-0.8-10.6C762.4,314.4,762.3,312.4,762.3,311.5z"/>
	<path class="st0" d="M803.1,307c0-0.7,0.1-1.5,0.2-2.5c0.1-1,0.4-1.9,0.8-2.8c0.4-0.9,0.9-1.7,1.5-2.3c0.6-0.6,1.4-0.9,2.3-0.9
		c0.1,0,0.2,0,0.4,0.1c0.2,0.1,0.4,0.1,0.4,0.1c1,3.7,1.6,7.4,1.8,11c0.2,3.6,0.1,7.2-0.2,10.6c-0.3,3.4-0.7,6.8-1.3,9.9
		c-0.6,3.2-1.1,6.1-1.5,8.8c-0.4,2.7-0.6,5.1-0.7,7.3c-0.1,2.2,0.2,4,0.9,5.5c-0.1-1-0.2-2.1-0.2-3.5c0-1.3,0.1-2.7,0.4-4.2
		s0.7-2.9,1.3-4.3c0.6-1.4,1.5-2.7,2.7-3.9c1.2-1.1,2.7-2,4.6-2.7c1.9-0.7,4.2-1,7-1c2.9,0,5.5,0.5,7.6,1.5c2.1,1,3.9,2.4,5.2,4.2
		c1.4,1.8,2.4,3.8,3.1,6.2c0.7,2.4,1,4.9,1,7.6c0,1.3,0,2.7,0,4.3c0,1.6-0.2,3-0.6,4.4s-1.1,2.5-2.1,3.4c-1,0.9-2.4,1.4-4.3,1.4
		c0-1,0.1-2.3,0.2-3.9c0.1-1.6,0.2-3.4,0.2-5.2c0-1.9,0-3.7-0.2-5.6c-0.2-1.9-0.6-3.6-1.2-5.2c-0.7-1.5-1.6-2.8-2.7-3.8
		c-1.2-1-2.8-1.5-4.8-1.5c-0.7,0-1.6,0-2.6,0.1c-1,0.1-2.1,0.4-3.2,0.9c-1.1,0.5-2.1,1.2-3.1,2.2c-1,1-1.8,2.3-2.4,4
		c-0.6,1.7-0.9,3.9-1,6.5s0.2,5.8,0.9,9.5c-0.4,1.1-0.9,1.7-1.6,1.9c-0.6,0.2-1.4,0.3-2.4,0.3c-1.9,0-3.5-0.7-4.7-2
		c-1.2-1.3-2.2-3.2-2.8-5.4c-0.7-2.3-1.1-4.9-1.3-7.9c-0.2-3-0.3-6.1-0.2-9.4c0.1-3.3,0.2-6.6,0.5-9.9c0.3-3.4,0.5-6.6,0.8-9.6
		c0.3-3,0.5-5.8,0.8-8.2C802.9,310.5,803.1,308.5,803.1,307z"/>
	<path class="st0" d="M844.2,340.3c0-3.2,0.4-6.5,1.2-9.7c0.8-3.2,2-6.1,3.7-8.7c1.7-2.6,3.9-4.7,6.6-6.3c2.7-1.6,6-2.4,9.9-2.4
		c2.2,0,4.2,0.4,5.8,1.2c1.7,0.8,3.1,1.9,4.2,3.2c1.1,1.3,2,2.9,2.6,4.6c0.6,1.8,0.9,3.6,0.9,5.5c0,3-0.7,6-2.1,8.9
		c-1.4,2.9-3.3,5.4-5.6,7.6c-2.4,2.2-5.1,3.8-8.1,4.9c-3,1.1-6.2,1.4-9.3,0.8c0.1,1.7,0.6,3.1,1.7,4.2c1.1,1,2.4,1.8,4,2.4
		s3.2,0.9,4.8,1c1.7,0.1,3.2,0.2,4.5,0.2c1.4,0,2.7-0.1,3.9-0.4c1.2-0.2,2.4-0.5,3.6-0.8c1.2-0.3,2.4-0.6,3.6-0.8
		c1.2-0.2,2.5-0.4,3.9-0.4c0.5,0,1.1,0,1.6,0.1c0.5,0.1,1,0.2,1.5,0.4c0.5,0.2,0.9,0.5,1.2,1s0.4,1,0.4,1.7c0,1.1-0.4,2.1-1.3,2.8
		c-0.8,0.7-1.9,1.4-3.2,1.9c-1.3,0.5-2.7,0.9-4.3,1.2c-1.6,0.3-3.1,0.5-4.5,0.6c-1.5,0.1-2.8,0.2-4,0.3c-1.2,0-2.1,0-2.7,0
		c-3.8,0-7.3-0.6-10.3-1.8c-3-1.2-5.6-2.9-7.7-5.1c-2.1-2.2-3.7-4.8-4.8-7.9C844.7,347.5,844.2,344.1,844.2,340.3z M853.7,334.5
		c0,2.1,0.3,3.6,0.9,4.6c0.6,1,2,1.4,4.2,1.4c1.6,0,3.1-0.3,4.6-0.9c1.5-0.6,2.9-1.4,4.1-2.4c1.2-1,2.2-2.2,2.9-3.6
		c0.7-1.4,1.1-2.9,1.1-4.5c0-0.9-0.1-1.8-0.2-2.8c-0.1-1-0.5-1.8-0.9-2.6c-0.5-0.8-1.1-1.5-1.8-2c-0.7-0.5-1.7-0.8-2.9-0.8
		c-1.8,0-3.4,0.4-4.9,1.2c-1.5,0.8-2.7,1.9-3.7,3.1c-1,1.3-1.8,2.7-2.3,4.3C854,331.3,853.7,332.9,853.7,334.5z"/>
	<path class="st0" d="M958.6,412.9c3.3,0,6.3-0.6,9-1.8c2.6-1.2,4.9-2.9,6.7-5c1.8-2.1,3.2-4.5,4.2-7.3c1-2.7,1.5-5.5,1.5-8.5
		c0-1.5-0.1-3.5-0.2-5.9c-0.2-2.5-0.4-5.1-0.7-8c-0.3-2.9-0.7-5.8-1.3-8.8c-0.6-3-1.3-5.8-2.1-8.5c-0.8-2.7-1.9-5-3.1-7
		c-1.2-2-2.6-3.4-4.3-4.3c-1.6,1.2-3.1,2.3-4.6,3.3c-1.5,1-3,1.8-4.7,2.5c-1.6,0.7-3.3,1.2-5,1.6c-1.7,0.4-3.6,0.6-5.6,0.6
		c-2.6,0-4.8-0.2-6.6-0.7c-1.8-0.5-3.3-1.3-4.6-2.4c-1.2-1.1-2.1-2.6-2.7-4.5c-0.6-1.9-0.9-4.2-0.9-7c0-2,0.5-3.9,1.4-5.8
		c1-1.9,2.2-3.6,3.8-5.3c1.6-1.6,3.4-3.2,5.4-4.5c2-1.4,4.1-2.6,6.2-3.6c2.1-1,4.2-1.8,6.3-2.3c2.1-0.5,3.9-0.8,5.5-0.8
		c1.6,0,2.8,0,3.9,0.1c1,0.1,1.9,0.3,2.6,0.7c0.7,0.4,1.3,1,1.8,1.8c0.5,0.8,1,1.9,1.5,3.3c1.4,4.7,3,9.7,4.8,15.1
		c1.8,5.4,3.5,10.9,5.1,16.6c1.6,5.7,3,11.4,4.1,17.2c1.1,5.8,1.7,11.3,1.7,16.7c0,4.8-0.7,8.8-2,12.1c-1.3,3.3-3.1,6-5.3,8.2
		c-2.2,2.1-4.7,3.7-7.4,4.9c-2.8,1.1-5.6,1.9-8.4,2.2c-2.8,0.3-5.5,0.4-8.2,0.2c-2.6-0.2-4.9-0.5-6.8-1c-1.9-0.5-3.4-1.1-4.3-1.7
		c-1-0.7-1.2-1.2-0.7-1.7c0.5-0.4,1.9-0.8,4.1-0.9C950.8,412.4,954.2,412.5,958.6,412.9z M959.9,326.4c-4.4,1-8,2.3-10.7,4
		c-2.7,1.7-4.8,3.5-6.1,5.5c-1.3,1.9-2.1,3.9-2.2,5.8c-0.1,1.9,0.2,3.6,1.1,5c0.8,1.4,2,2.4,3.6,3.1c1.6,0.7,3.4,0.7,5.4,0.1
		c2-0.6,4.2-2,6.5-4.1c2.3-2.1,4.6-5.2,6.9-9.3c0-1,0-2.1,0-3.3c0-1.2-0.1-2.3-0.3-3.3c-0.2-1-0.7-1.8-1.3-2.5
		C962.2,326.8,961.2,326.4,959.9,326.4z"/>
	<path class="st0" d="M987.4,328.7c0-0.4,0-1,0-1.9c0-0.9,0-1.9,0-2.9c0-1,0-2,0-2.8c0-0.9,0-1.5,0-1.8c0.4-0.7,0.9-1.4,1.5-2.1
		c0.6-0.7,1.2-1.2,1.8-1.4s1.3-0.3,2.1-0.1c0.7,0.2,1.5,0.8,2.3,1.8v0.7v1.2c-0.1,0.3-0.2,1-0.4,2.1c-0.2,1.1-0.4,2.3-0.6,3.6
		c-0.2,1.3-0.5,2.5-0.7,3.6c-0.2,1.1-0.3,1.8-0.3,2.1c0,1.1,0.1,2.6,0.4,4.3c0.2,1.7,0.6,3.5,1,5.3c0.4,1.9,1,3.7,1.7,5.6
		c0.7,1.9,1.5,3.5,2.5,5c1,1.5,2,2.7,3.2,3.6c1.2,1,2.5,1.4,4.1,1.4c1.9,0,3.6-0.5,5.1-1.5c1.5-1,2.7-2.3,3.8-3.9
		c1.1-1.6,2-3.4,2.6-5.5c0.7-2,1.2-4.1,1.7-6.1c0.4-2.1,0.7-4,0.9-6c0.2-1.9,0.3-3.6,0.3-5c0-1.4-0.1-2.8-0.3-4.1
		c-0.2-1.3-0.5-2.6-0.8-3.8s-0.6-2.5-0.8-3.7c-0.2-1.2-0.3-2.5-0.3-3.7c0-1.1,0.4-1.9,1.2-2.4c0.8-0.5,1.7-0.7,2.7-0.7
		c1.3,0,2.3,0.4,3,1.1c0.8,0.7,1.4,1.7,1.8,2.8c0.4,1.1,0.7,2.4,0.9,3.9c0.1,1.5,0.2,2.9,0.2,4.3c0,1.4,0,2.8-0.1,4.1
		c-0.1,1.3-0.1,2.3-0.1,3.1c0,2-0.2,4.3-0.4,6.9c-0.3,2.6-0.8,5.2-1.6,7.9c-0.7,2.7-1.7,5.4-2.8,8c-1.1,2.6-2.5,5-4,7
		c-1.6,2.1-3.4,3.7-5.5,5c-2.1,1.3-4.4,1.9-6.9,1.9c-2.7,0-5-0.6-7.1-1.9c-2-1.3-3.8-3-5.2-5.1c-1.4-2.1-2.6-4.5-3.5-7.2
		c-1-2.7-1.7-5.4-2.2-8.1c-0.5-2.7-0.9-5.3-1.1-7.8C987.5,332.7,987.4,330.5,987.4,328.7z"/>
	<path class="st0" d="M1032,318.9c0-0.5,0-1.1,0-1.7c0-0.6,0.1-1.1,0.4-1.6c0.2-0.5,0.5-0.9,0.9-1.2s1-0.4,1.7-0.4
		c0.1,0,0.1,0,0.2,0c0.1,0,0.2,0,0.3,0c0.2,0.1,0.3,0.1,0.4,0.1c1.1,1.6,2.1,3.5,3,6c0.8,2.4,1.6,5,2.4,7.7c0.8,2.7,1.6,5.5,2.5,8.2
		c0.9,2.8,2.1,5.3,3.5,7.5c1.4,2.2,3.2,4,5.3,5.3c2.1,1.3,4.7,1.9,7.8,1.7c1.4,0,2.3-0.7,2.7-2.2c0.4-1.5,0.6-3.4,0.7-5.7
		c0-2.3,0-4.9-0.2-7.7c-0.2-2.8-0.2-5.5,0-8c0.1-2.5,0.6-4.8,1.3-6.7s2-3.2,3.9-3.9c0.8,1.6,1.4,4,1.9,7.3c0.5,3.3,0.9,7.1,1.1,11.5
		c0.2,4.3,0.4,9,0.4,14.1s-0.1,10.1-0.4,15.1c-0.2,5-0.6,9.8-1.1,14.4c-0.5,4.6-1,8.6-1.6,12.1c-0.6,3.5-1.3,6.2-2.1,8.2
		c-0.8,2-1.7,2.9-2.6,2.6c-1.3-1.2-2.2-2.7-2.9-4.7c-0.7-1.9-1.2-4-1.4-6.4c-0.3-2.3-0.4-4.8-0.3-7.4c0.1-2.6,0.2-5.2,0.3-7.8
		c0.1-2.6,0.3-5.2,0.5-7.7c0.2-2.5,0.3-4.8,0.3-6.9c-2.2,0.2-4.3-0.1-6.6-1c-2.2-0.8-4.4-2.1-6.6-3.9c-2.2-1.8-4.2-3.9-6.1-6.4
		c-1.9-2.5-3.6-5.3-5.1-8.5c-1.5-3.2-2.6-6.6-3.5-10.3C1032.4,326.8,1032,323,1032,318.9z"/>
	<path class="st0" d="M1117,326.9c0-1,0.2-1.9,0.7-2.8s1.2-1.3,2.4-1.3c0.1,0,0.1,0,0.3,0c0.1,0,0.2,0,0.4,0c0.1,0,0.2,0,0.4,0
		c0.2,0.1,0.5,0.4,1,0.9c0.5,0.5,0.8,0.8,0.9,1.1c0.2,0.4,0.6,1.1,1.1,2.3c0.6,1.2,1.3,2.6,2.1,4.2c0.8,1.6,1.6,3.3,2.5,5
		c0.9,1.8,1.7,3.5,2.5,5.1s1.5,3,2.1,4.2c0.6,1.2,1,1.9,1.2,2.3c0.1,0.2,0.3,0.5,0.9,1c0.5,0.5,0.9,0.8,1.1,0.9
		c0.5-0.8,1-2.1,1.4-3.8c0.5-1.7,1-3.5,1.5-5.5c0.5-2,1-4.1,1.6-6.2c0.5-2.1,1.2-4,1.8-5.7c0.7-1.7,1.4-3.1,2.3-4.2
		c0.8-1.1,1.8-1.7,2.9-1.7c1.6,0,3,0.6,4.4,1.8c1.4,1.2,2.7,2.7,4,4.7c1.3,1.9,2.5,4,3.7,6.4c1.2,2.4,2.3,4.7,3.3,7
		c1,2.3,2,4.4,3,6.4c0.9,1.9,1.8,3.5,2.7,4.6c0.7-0.2,1.3-0.8,1.8-1.8c0.5-1,0.9-2,1.1-3c0.3-1,0.5-2,0.6-3c0.1-0.9,0.2-1.5,0.3-1.8
		c0.1-0.7,0.1-1.7,0.3-3.1c0.1-1.4,0.3-3,0.4-4.8c0.1-1.8,0.3-3.6,0.4-5.6c0.1-1.9,0.3-3.8,0.4-5.6c0.1-1.8,0.3-3.4,0.4-4.8
		c0.1-1.4,0.1-2.4,0.1-3c0.1,0,0.4,0,0.9-0.1c0.5-0.1,0.8-0.1,1-0.1c0.8,0,1.6,0.1,2.2,0.3c0.7,0.2,1.2,0.8,1.5,1.9
		c0,0.4,0,1.2,0,2.2c0,1.1,0.1,2.2,0.1,3.5s0.1,2.4,0.1,3.5c0,1.1,0,1.9,0,2.3c0,1,0,2.4,0,4.4c0,2,0,4.2-0.1,6.7
		c-0.1,2.5-0.3,4.9-0.6,7.5c-0.3,2.5-0.8,4.9-1.4,7c-0.6,2.1-1.5,3.9-2.6,5.2c-1.1,1.3-2.4,2-4,2c-1.9,0-3.6-0.4-5.2-1.3
		s-3.1-2.1-4.5-3.6c-1.4-1.5-2.7-3.2-4-5c-1.3-1.8-2.4-3.7-3.4-5.6c-1-1.9-2-3.7-2.9-5.4c-0.9-1.7-1.6-3.2-2.3-4.3
		c-0.5,1.1-0.9,2.4-1.3,4c-0.4,1.6-0.8,3.4-1.3,5.2c-0.5,1.9-1,3.8-1.6,5.6c-0.6,1.9-1.3,3.6-2,5.1c-0.7,1.5-1.6,2.8-2.6,3.7
		c-1,1-2.1,1.4-3.4,1.4c-0.6,0-1.1,0-1.6,0c-0.5,0-0.9,0-1.3-0.1c-0.4-0.1-0.8-0.3-1.2-0.6c-0.4-0.3-0.7-0.8-1-1.4l-15.3-32.7
		c0-0.1,0-0.3-0.1-0.8C1117,327.5,1117,327.1,1117,326.9z"/>
	<path class="st0" d="M1188.9,307c0-0.7,0.1-1.5,0.2-2.5c0.1-1,0.4-1.9,0.8-2.8s0.9-1.7,1.5-2.3c0.6-0.6,1.4-0.9,2.3-0.9
		c0.1,0,0.2,0,0.4,0.1c0.2,0.1,0.4,0.1,0.4,0.1c1,3.7,1.6,7.4,1.8,11c0.2,3.6,0.1,7.2-0.2,10.6c-0.3,3.4-0.7,6.8-1.3,9.9
		c-0.6,3.2-1.1,6.1-1.5,8.8c-0.4,2.7-0.6,5.1-0.7,7.3c-0.1,2.2,0.2,4,0.9,5.5c-0.1-1-0.2-2.1-0.2-3.5c0-1.3,0.1-2.7,0.4-4.2
		c0.3-1.4,0.7-2.9,1.3-4.3c0.6-1.4,1.5-2.7,2.7-3.9c1.2-1.1,2.7-2,4.6-2.7c1.9-0.7,4.2-1,7-1c2.9,0,5.5,0.5,7.6,1.5
		c2.1,1,3.9,2.4,5.2,4.2c1.4,1.8,2.4,3.8,3.1,6.2c0.7,2.4,1,4.9,1,7.6c0,1.3,0,2.7,0,4.3c0,1.6-0.2,3-0.6,4.4
		c-0.4,1.3-1.1,2.5-2.1,3.4c-1,0.9-2.4,1.4-4.3,1.4c0-1,0.1-2.3,0.2-3.9c0.1-1.6,0.2-3.4,0.2-5.2c0-1.9,0-3.7-0.2-5.6
		c-0.2-1.9-0.6-3.6-1.2-5.2c-0.7-1.5-1.6-2.8-2.7-3.8c-1.2-1-2.8-1.5-4.8-1.5c-0.7,0-1.6,0-2.6,0.1c-1,0.1-2.1,0.4-3.2,0.9
		c-1.1,0.5-2.1,1.2-3.1,2.2c-1,1-1.8,2.3-2.4,4c-0.6,1.7-0.9,3.9-1,6.5s0.2,5.8,0.9,9.5c-0.4,1.1-0.9,1.7-1.6,1.9
		c-0.6,0.2-1.4,0.3-2.4,0.3c-1.9,0-3.5-0.7-4.7-2c-1.2-1.3-2.2-3.2-2.8-5.4c-0.7-2.3-1.1-4.9-1.3-7.9c-0.2-3-0.3-6.1-0.2-9.4
		c0.1-3.3,0.2-6.6,0.5-9.9c0.3-3.4,0.5-6.6,0.8-9.6c0.3-3,0.5-5.8,0.8-8.2C1188.8,310.5,1188.9,308.5,1188.9,307z"/>
	<path class="st0" d="M1230,347c0-3.7,0.9-7.2,2.6-10.4c1.7-3.2,4-5.9,6.9-8.2c2.8-2.3,6-4.1,9.6-5.4c3.6-1.3,7.2-2,10.8-2
		c2,0,3.8,0.7,5.4,2c1.6,1.3,2.9,2.9,4,4.8c1.1,1.9,1.9,3.9,2.5,6c0.6,2.1,0.9,3.9,0.9,5.5c0,3.3-0.8,6.6-2.4,9.7s-3.7,5.9-6.3,8.3
		c-2.6,2.4-5.5,4.4-8.7,5.9c-3.2,1.5-6.5,2.2-9.7,2.2c-2.9,0-5.3-0.5-7.3-1.5c-2-1-3.6-2.3-4.8-3.9c-1.2-1.6-2.1-3.6-2.6-5.8
		C1230.3,351.9,1230,349.5,1230,347z M1237.6,347.9c0,1.6,0.1,2.9,0.4,4.1c0.3,1.2,0.7,2.2,1.4,3c0.7,0.8,1.6,1.5,2.7,1.9
		c1.1,0.4,2.5,0.7,4.2,0.7c2.2,0,4.4-0.6,6.6-1.8c2.2-1.2,4.2-2.8,6-4.7c1.8-1.9,3.2-4,4.3-6.2c1.1-2.3,1.6-4.5,1.6-6.6
		c0-1-0.1-2-0.3-3.1c-0.2-1.1-0.5-2.2-0.9-3.1c-0.4-1-1-1.8-1.8-2.4c-0.8-0.7-1.8-1-3-1c-1.1,0-2.3,0.4-3.8,1.1
		c-1.5,0.7-3,1.6-4.6,2.8c-1.6,1.1-3.1,2.4-4.7,3.9c-1.5,1.4-2.9,2.9-4.2,4.3s-2.3,2.8-3,4.1C1238,346,1237.6,347.1,1237.6,347.9z"
		/>
	<path class="st0" d="M1334.8,363.4c-1,0.8-2,0.4-3-1.2c-1-1.6-2.1-4-3.2-7.3c-1.1-3.3-2.1-7.2-3.2-11.7c-1-4.5-2-9.3-3-14.4
		c-1-5.1-1.9-10.2-2.7-15.5c-0.9-5.2-1.6-10.1-2.3-14.7c0-0.8,0-1.7,0-2.6c0-0.9,0.1-1.7,0.3-2.4c0.2-0.7,0.6-1.4,1.2-2
		c0.6-0.6,1.4-1,2.6-1.3c0.1-0.1,0.4,0,0.8,0.1c0.4,0.2,0.8,0.3,1.2,0.5c0.4,0.2,0.8,0.4,1.1,0.7c0.3,0.2,0.6,0.4,0.7,0.6
		c-0.8,11.2,0.5,22,3.9,32.6c0.2-0.2,0.7-0.8,1.4-1.8c0.8-1,1.8-2.3,3-3.7c1.2-1.4,2.6-2.9,4.1-4.5s3.1-3.1,4.8-4.5
		c1.7-1.4,3.3-2.5,5-3.5c1.7-0.9,3.3-1.4,4.8-1.4c0.9,0,1.8,0.2,2.6,0.6c0.9,0.4,1.3,1.2,1.3,2.4c0,0.1,0,0.3-0.1,0.5
		c-0.1,0.2-0.1,0.4-0.1,0.5c-1,0.8-2.4,2.1-4.3,3.9c-1.9,1.7-4,3.7-6.1,5.8c-2.2,2.2-4.2,4.4-6.2,6.7s-3.5,4.5-4.5,6.6
		c-0.2,0.4-0.2,0.7-0.2,0.9c0.1,0.3,0.1,0.6,0.2,0.9c0.7,0.2,1.7,0.6,3.1,1.1c1.4,0.5,3,1,4.8,1.7c1.7,0.6,3.6,1.3,5.6,2
		c2,0.7,3.8,1.4,5.6,2c1.7,0.7,3.3,1.2,4.7,1.7c1.4,0.5,2.5,0.9,3.2,1.1c0.8,0.4,1.5,0.6,2.1,0.7c0.5,0.1,1,0.3,1.3,0.5
		c0.3,0.2,0.5,0.5,0.6,0.9c0.1,0.4,0.2,0.9,0.2,1.6c0,1.7-0.4,2.9-1.3,3.4c-0.8,0.5-2,0.8-3.6,0.8c-4.6-0.3-9.1-1.3-13.5-2.9
		c-4.4-1.6-8.9-3.6-13.4-6c-0.2,1.1-0.1,2.5,0.2,3.9c0.3,1.5,0.7,3,1.2,4.5c0.5,1.5,0.9,3,1.4,4.4c0.4,1.4,0.7,2.7,0.8,3.9
		c0.1,1.1,0,2-0.4,2.7C1336.9,363.1,1336.1,363.4,1334.8,363.4z"/>
	<path class="st0" d="M1369.3,335c0-1.6,0.4-2.7,1.2-3.4c0.8-0.7,2-1,3.8-1h0.9c0.2,1,0.4,2.1,0.6,3.3c0.2,1.3,0.6,2.5,1.1,3.9
		c0.5,1.3,1,2.5,1.7,3.6c0.7,1.1,1.5,2,2.4,2.6c0.1-2.1,0.6-4.1,1.6-6c1-1.9,2.2-3.7,3.7-5.2c1.5-1.5,3.1-2.8,4.8-3.9
		c1.8-1,3.5-1.7,5.2-2.1h2c2.9,0,5.3,0.6,7.3,1.9c2,1.3,3.7,3,5.1,5c1.3,2.1,2.4,4.4,3.1,7c0.7,2.6,1.3,5.3,1.7,8
		c0.4,2.7,0.6,5.3,0.7,7.9c0.1,2.5,0.1,4.7,0.1,6.5h-6.5c-0.4-3.6-0.8-7-1.3-10.3c-0.2-1.3-0.4-2.7-0.7-4.2c-0.3-1.5-0.6-2.8-1-4.1
		c-0.4-1.3-0.7-2.5-1.2-3.6c-0.4-1.1-0.9-2-1.4-2.8c-0.2-0.2-0.6-0.6-0.9-1c-0.4-0.4-0.8-0.8-1.2-1.3s-0.8-0.8-1.2-1.1
		c-0.4-0.3-0.6-0.4-0.6-0.4c-1.8-0.5-3.3-0.1-4.7,1c-1.3,1.2-2.5,2.7-3.5,4.7c-1,2-1.8,4.2-2.5,6.7c-0.6,2.5-1.2,4.9-1.6,7.2
		c-0.4,2.3-0.7,4.3-0.9,6c-0.2,1.7-0.3,2.7-0.4,3.1c-1.5,1.1-2.9,1.4-4.2,0.9c-1.3-0.4-2.6-1.4-3.7-2.8c-1.2-1.4-2.2-3.2-3.1-5.4
		c-0.9-2.2-1.8-4.4-2.6-6.9c-0.8-2.4-1.5-4.9-2.1-7.3C1370.3,339.4,1369.8,337.1,1369.3,335z"/>
	<path class="st0" d="M1421.2,347c0-3.7,0.9-7.2,2.6-10.4c1.7-3.2,4-5.9,6.9-8.2c2.8-2.3,6-4.1,9.6-5.4c3.6-1.3,7.2-2,10.8-2
		c2,0,3.8,0.7,5.4,2c1.6,1.3,2.9,2.9,4,4.8c1.1,1.9,1.9,3.9,2.5,6c0.6,2.1,0.9,3.9,0.9,5.5c0,3.3-0.8,6.6-2.4,9.7s-3.7,5.9-6.3,8.3
		c-2.6,2.4-5.5,4.4-8.7,5.9c-3.2,1.5-6.5,2.2-9.7,2.2c-2.9,0-5.3-0.5-7.3-1.5c-2-1-3.6-2.3-4.8-3.9c-1.2-1.6-2.1-3.6-2.6-5.8
		C1421.5,351.9,1421.2,349.5,1421.2,347z M1428.8,347.9c0,1.6,0.1,2.9,0.4,4.1c0.3,1.2,0.7,2.2,1.4,3c0.7,0.8,1.6,1.5,2.7,1.9
		c1.1,0.4,2.5,0.7,4.2,0.7c2.2,0,4.4-0.6,6.6-1.8c2.2-1.2,4.2-2.8,6-4.7c1.8-1.9,3.2-4,4.3-6.2c1.1-2.3,1.6-4.5,1.6-6.6
		c0-1-0.1-2-0.3-3.1c-0.2-1.1-0.5-2.2-0.9-3.1c-0.4-1-1-1.8-1.8-2.4c-0.8-0.7-1.8-1-3-1c-1.1,0-2.3,0.4-3.8,1.1
		c-1.5,0.7-3,1.6-4.6,2.8c-1.6,1.1-3.1,2.4-4.7,3.9c-1.5,1.4-2.9,2.9-4.2,4.3s-2.3,2.8-3,4.1C1429.2,346,1428.8,347.1,1428.8,347.9z
		"/>
	<path class="st0" d="M1465.3,326.9c0-1,0.2-1.9,0.7-2.8s1.2-1.3,2.4-1.3c0.1,0,0.1,0,0.3,0c0.1,0,0.2,0,0.4,0c0.1,0,0.2,0,0.4,0
		c0.2,0.1,0.5,0.4,1,0.9c0.5,0.5,0.8,0.8,0.9,1.1c0.2,0.4,0.6,1.1,1.1,2.3c0.6,1.2,1.3,2.6,2.1,4.2c0.8,1.6,1.6,3.3,2.5,5
		c0.9,1.8,1.7,3.5,2.5,5.1s1.5,3,2.1,4.2c0.6,1.2,1,1.9,1.2,2.3c0.1,0.2,0.3,0.5,0.9,1c0.5,0.5,0.9,0.8,1.1,0.9
		c0.5-0.8,1-2.1,1.4-3.8c0.5-1.7,1-3.5,1.5-5.5c0.5-2,1-4.1,1.6-6.2c0.5-2.1,1.1-4,1.8-5.7c0.7-1.7,1.4-3.1,2.3-4.2
		c0.8-1.1,1.8-1.7,2.9-1.7c1.6,0,3,0.6,4.4,1.8c1.4,1.2,2.7,2.7,4,4.7c1.3,1.9,2.5,4,3.7,6.4c1.2,2.4,2.3,4.7,3.3,7
		c1,2.3,2,4.4,3,6.4c0.9,1.9,1.8,3.5,2.7,4.6c0.7-0.2,1.3-0.8,1.8-1.8c0.5-1,0.9-2,1.1-3c0.3-1,0.5-2,0.6-3c0.1-0.9,0.2-1.5,0.3-1.8
		c0.1-0.7,0.1-1.7,0.3-3.1c0.1-1.4,0.3-3,0.4-4.8c0.1-1.8,0.3-3.6,0.4-5.6c0.1-1.9,0.3-3.8,0.4-5.6c0.1-1.8,0.3-3.4,0.4-4.8
		c0.1-1.4,0.1-2.4,0.1-3c0.1,0,0.4,0,0.9-0.1c0.5-0.1,0.8-0.1,1-0.1c0.8,0,1.6,0.1,2.2,0.3c0.7,0.2,1.2,0.8,1.5,1.9
		c0,0.4,0,1.2,0,2.2c0,1.1,0.1,2.2,0.1,3.5c0,1.2,0.1,2.4,0.1,3.5c0,1.1,0,1.9,0,2.3c0,1,0,2.4,0,4.4c0,2,0,4.2-0.1,6.7
		c-0.1,2.5-0.3,4.9-0.6,7.5c-0.3,2.5-0.8,4.9-1.4,7c-0.6,2.1-1.5,3.9-2.6,5.2c-1.1,1.3-2.4,2-4,2c-1.9,0-3.6-0.4-5.2-1.3
		s-3.1-2.1-4.5-3.6c-1.4-1.5-2.7-3.2-4-5c-1.3-1.8-2.4-3.7-3.5-5.6c-1-1.9-2-3.7-2.9-5.4c-0.9-1.7-1.6-3.2-2.3-4.3
		c-0.5,1.1-0.9,2.4-1.3,4c-0.4,1.6-0.8,3.4-1.3,5.2c-0.5,1.9-1,3.8-1.6,5.6c-0.6,1.9-1.3,3.6-2,5.1c-0.7,1.5-1.6,2.8-2.6,3.7
		c-1,1-2.1,1.4-3.4,1.4c-0.6,0-1.1,0-1.6,0c-0.5,0-0.9,0-1.3-0.1c-0.4-0.1-0.8-0.3-1.2-0.6c-0.4-0.3-0.7-0.8-1-1.4l-15.3-32.7
		c0-0.1,0-0.3-0.1-0.8C1465.3,327.5,1465.3,327.1,1465.3,326.9z"/>
	<path class="st0" d="M1551.8,361.2c1-0.7,2.1-1.5,3.5-2.6c1.3-1,2.7-2.2,4.1-3.4c1.4-1.2,2.7-2.4,3.9-3.8c1.2-1.3,2.1-2.6,2.8-3.8
		c0.7-1.2,1-2.4,1-3.5s-0.5-2-1.6-2.7c-1.9,0-4,0.1-6.3,0.2c-2.3,0.1-4.5,0.2-6.8,0.2c-2.3,0-4.5-0.2-6.6-0.6c-2.1-0.4-4-1-5.7-2
		c-1.7-1-3-2.3-4-4.1c-1-1.8-1.5-4-1.5-6.8c0-3.2,0.6-6.1,1.8-8.7c1.2-2.6,2.9-4.9,4.9-6.9c2-2,4.3-3.8,6.9-5.3
		c2.5-1.5,5.1-2.8,7.7-3.9c1.6,0.4,3,1.2,4.3,2.2c1.3,1.1,2.4,2.3,3.4,3.6c-0.4,1.3-1.2,2.3-2.5,3c-1.2,0.7-2.6,1.3-4.2,1.9
		c-1.6,0.5-3.2,1.1-5,1.7c-1.7,0.6-3.3,1.4-4.7,2.4c-1.4,1-2.6,2.3-3.5,3.9c-1,1.6-1.4,3.7-1.4,6.2c0,1.9,0.5,3.3,1.4,4.2
		c1,0.9,2.2,1.5,3.8,1.8c1.6,0.3,3.3,0.4,5.3,0.4s4-0.2,6-0.4c2.1-0.2,4.1-0.3,6-0.3c2,0,3.7,0.2,5.3,0.7c1.6,0.5,2.8,1.3,3.7,2.5
		c0.9,1.1,1.4,2.8,1.4,5c0,1-0.3,2.2-0.9,3.7c-0.6,1.5-1.5,3.1-2.5,4.8c-1,1.7-2.3,3.4-3.7,5.1c-1.4,1.7-2.9,3.2-4.4,4.5
		c-1.5,1.3-3,2.5-4.6,3.3c-1.5,0.9-2.9,1.3-4.3,1.3c-1.3,0-2.1-0.4-2.5-1.3C1552,363,1551.8,362.1,1551.8,361.2z"/>
	<path class="st0" d="M1620.1,335c0-1.6,0.4-2.7,1.2-3.4c0.8-0.7,2-1,3.8-1h0.9c0.2,1,0.4,2.1,0.6,3.3c0.2,1.3,0.6,2.5,1.1,3.9
		c0.5,1.3,1,2.5,1.7,3.6c0.7,1.1,1.5,2,2.4,2.6c0.1-2.1,0.6-4.1,1.6-6c1-1.9,2.2-3.7,3.7-5.2c1.5-1.5,3.1-2.8,4.8-3.9
		c1.8-1,3.5-1.7,5.2-2.1h2c2.9,0,5.3,0.6,7.3,1.9c2,1.3,3.7,3,5.1,5c1.3,2.1,2.4,4.4,3.1,7c0.7,2.6,1.3,5.3,1.7,8
		c0.4,2.7,0.6,5.3,0.7,7.9c0.1,2.5,0.1,4.7,0.1,6.5h-6.5c-0.4-3.6-0.8-7-1.3-10.3c-0.2-1.3-0.4-2.7-0.7-4.2c-0.3-1.5-0.6-2.8-1-4.1
		c-0.4-1.3-0.7-2.5-1.2-3.6c-0.4-1.1-0.9-2-1.4-2.8c-0.2-0.2-0.6-0.6-0.9-1c-0.4-0.4-0.8-0.8-1.2-1.3s-0.8-0.8-1.2-1.1
		c-0.4-0.3-0.6-0.4-0.6-0.4c-1.8-0.5-3.3-0.1-4.7,1c-1.3,1.2-2.5,2.7-3.5,4.7c-1,2-1.8,4.2-2.5,6.7c-0.6,2.5-1.2,4.9-1.6,7.2
		c-0.4,2.3-0.7,4.3-0.9,6c-0.2,1.7-0.3,2.7-0.4,3.1c-1.5,1.1-2.9,1.4-4.2,0.9c-1.3-0.4-2.6-1.4-3.7-2.8c-1.2-1.4-2.2-3.2-3.1-5.4
		c-0.9-2.2-1.8-4.4-2.6-6.9c-0.8-2.4-1.5-4.9-2.1-7.3C1621.1,339.4,1620.5,337.1,1620.1,335z"/>
	<path class="st0" d="M1672,347c0-3.7,0.9-7.2,2.6-10.4c1.7-3.2,4-5.9,6.9-8.2c2.8-2.3,6-4.1,9.6-5.4c3.6-1.3,7.2-2,10.8-2
		c2,0,3.8,0.7,5.4,2c1.6,1.3,2.9,2.9,4,4.8c1.1,1.9,1.9,3.9,2.5,6c0.6,2.1,0.9,3.9,0.9,5.5c0,3.3-0.8,6.6-2.4,9.7s-3.7,5.9-6.3,8.3
		c-2.6,2.4-5.5,4.4-8.7,5.9c-3.2,1.5-6.5,2.2-9.7,2.2c-2.9,0-5.3-0.5-7.3-1.5c-2-1-3.6-2.3-4.8-3.9c-1.2-1.6-2.1-3.6-2.6-5.8
		C1672.2,351.9,1672,349.5,1672,347z M1679.6,347.9c0,1.6,0.1,2.9,0.4,4.1c0.3,1.2,0.7,2.2,1.4,3c0.7,0.8,1.6,1.5,2.7,1.9
		c1.1,0.4,2.5,0.7,4.2,0.7c2.2,0,4.4-0.6,6.6-1.8c2.2-1.2,4.2-2.8,6-4.7c1.8-1.9,3.2-4,4.3-6.2c1.1-2.3,1.6-4.5,1.6-6.6
		c0-1-0.1-2-0.3-3.1c-0.2-1.1-0.5-2.2-0.9-3.1c-0.4-1-1-1.8-1.8-2.4c-0.8-0.7-1.8-1-3-1c-1.1,0-2.3,0.4-3.8,1.1
		c-1.5,0.7-3,1.6-4.6,2.8c-1.6,1.1-3.1,2.4-4.7,3.9c-1.5,1.4-2.9,2.9-4.2,4.3s-2.3,2.8-3,4.1C1679.9,346,1679.6,347.1,1679.6,347.9z
		"/>
	<path class="st0" d="M1716.1,320.1c0-0.2,0-0.3,0.1-0.4c0-0.1,0-0.3,0.1-0.4c0.2-0.3,0.6-0.7,1.1-1.2c0.5-0.5,0.8-0.7,0.9-0.7h18
		c0-0.7-0.1-1.7-0.3-3.1c-0.2-1.4-0.3-3-0.5-4.8c-0.2-1.7-0.2-3.5-0.1-5.4c0.1-1.9,0.3-3.6,0.8-5.1s1.2-2.8,2.2-3.8
		c1-1,2.4-1.5,4.2-1.5c0,6,0.4,10.9,1.3,14.5c0.8,3.6,2,6.5,3.4,8.4c1.4,2,3,3.3,4.8,3.9c1.8,0.6,3.6,0.9,5.5,0.8
		c1.9-0.1,3.7-0.4,5.5-0.9c1.8-0.5,3.4-0.8,4.8-1c1.4-0.2,2.5,0,3.4,0.4c0.8,0.4,1.3,1.5,1.3,3.2c0,1.3-0.3,2.2-0.9,2.7
		c-0.6,0.5-1.7,1-3.3,1.3c-0.5,0.1-1.3,0.2-2.4,0.3c-1.1,0.1-2.3,0.3-3.7,0.4c-1.4,0.1-2.8,0.3-4.4,0.4c-1.6,0.1-3,0.3-4.4,0.4
		c-1.4,0.1-2.6,0.2-3.8,0.2c-1.1,0-2,0-2.5,0c0,0.3,0,0.8-0.1,1.5c-0.1,0.7-0.1,1.2-0.1,1.4c0,2.6,0.4,5.2,1.3,7.7
		c0.8,2.5,1.7,4.9,2.7,7.4c1,2.5,1.9,4.9,2.7,7.3c0.8,2.5,1.3,5,1.3,7.6c0,0.5,0,1-0.1,1.5c-0.1,0.5-0.3,1-0.5,1.3
		c-0.3,0.4-0.7,0.7-1.2,0.9c-0.5,0.2-1.2,0.2-2.1-0.1c-2.3-0.6-4-1.9-5.1-3.9c-1.1-2-1.9-4.3-2.5-7c-0.5-2.7-0.9-5.6-1.1-8.6
		c-0.2-3-0.5-5.9-0.9-8.6c-0.4-2.7-1-4.9-1.8-6.8c-0.8-1.9-2.2-3-4-3.5l-17.3-3.9c-0.2,0-0.6-0.3-1.1-0.8c-0.5-0.5-0.8-0.9-0.9-1.1
		c-0.1-0.1-0.1-0.3-0.1-0.4C1716.1,320.5,1716.1,320.3,1716.1,320.1z"/>
	<path class="st0" d="M1778.3,307c0-0.7,0.1-1.5,0.2-2.5c0.1-1,0.4-1.9,0.8-2.8s0.9-1.7,1.5-2.3c0.6-0.6,1.4-0.9,2.3-0.9
		c0.1,0,0.2,0,0.4,0.1c0.2,0.1,0.4,0.1,0.4,0.1c1,3.7,1.6,7.4,1.8,11c0.2,3.6,0.1,7.2-0.2,10.6c-0.3,3.4-0.7,6.8-1.3,9.9
		c-0.6,3.2-1.1,6.1-1.5,8.8c-0.4,2.7-0.6,5.1-0.7,7.3c-0.1,2.2,0.2,4,0.9,5.5c-0.1-1-0.2-2.1-0.2-3.5c0-1.3,0.1-2.7,0.4-4.2
		c0.3-1.4,0.7-2.9,1.3-4.3c0.6-1.4,1.5-2.7,2.7-3.9c1.2-1.1,2.7-2,4.6-2.7c1.9-0.7,4.2-1,7-1c2.9,0,5.5,0.5,7.6,1.5
		c2.1,1,3.9,2.4,5.2,4.2c1.4,1.8,2.4,3.8,3.1,6.2c0.7,2.4,1,4.9,1,7.6c0,1.3,0,2.7,0,4.3c0,1.6-0.2,3-0.6,4.4
		c-0.4,1.3-1.1,2.5-2.1,3.4c-1,0.9-2.4,1.4-4.3,1.4c0-1,0.1-2.3,0.2-3.9c0.1-1.6,0.2-3.4,0.2-5.2c0-1.9,0-3.7-0.2-5.6
		c-0.2-1.9-0.6-3.6-1.2-5.2c-0.7-1.5-1.6-2.8-2.7-3.8c-1.2-1-2.8-1.5-4.8-1.5c-0.7,0-1.6,0-2.6,0.1c-1,0.1-2.1,0.4-3.2,0.9
		c-1.1,0.5-2.1,1.2-3.1,2.2c-1,1-1.8,2.3-2.4,4c-0.6,1.7-0.9,3.9-1,6.5s0.2,5.8,0.9,9.5c-0.4,1.1-0.9,1.7-1.6,1.9
		c-0.6,0.2-1.4,0.3-2.4,0.3c-1.9,0-3.5-0.7-4.7-2c-1.2-1.3-2.2-3.2-2.8-5.4c-0.7-2.3-1.1-4.9-1.3-7.9c-0.2-3-0.3-6.1-0.2-9.4
		c0.1-3.3,0.2-6.6,0.5-9.9c0.3-3.4,0.5-6.6,0.8-9.6c0.3-3,0.5-5.8,0.8-8.2C1778.1,310.5,1778.3,308.5,1778.3,307z"/>
	<path class="st0" d="M1824.4,298c1.1,0.5,2.1,1.3,2.9,2.3c0.8,1.1,1.1,2,1,2.9c-0.1,0.9-0.8,1.5-2,1.8c-1.3,0.3-3.3,0-6.3-1
		c0-1.6,0.3-3,0.9-4.2C1821.6,298.6,1822.7,298,1824.4,298z M1823.2,331.6c0-0.4,0-0.9,0-1.7c0-0.8,0.1-1.7,0.1-2.6
		c0-0.9,0.1-1.8,0.1-2.6c0-0.8,0-1.4,0-1.8c0.7-1,1.5-1.7,2.6-2.3c1-0.6,2.1-1.1,3.2-1.4c0.2,3.2,0.7,6.7,1.5,10.3
		c0.8,3.6,1.7,7.3,2.7,11c1,3.7,1.8,7.3,2.6,10.9c0.7,3.6,1.1,6.9,1.1,10c0,2.7-1.4,4-4.1,4c-1.7,0-3.1-0.7-4.2-2.1
		c-1.1-1.4-2-3.1-2.7-5.2c-0.7-2.1-1.2-4.5-1.7-7.1c-0.4-2.6-0.7-5.2-0.9-7.7c-0.1-2.5-0.2-4.8-0.3-6.9
		C1823.2,334.4,1823.2,332.8,1823.2,331.6z"/>
	<path class="st0" d="M1840.5,335c0-1.6,0.4-2.7,1.2-3.4c0.8-0.7,2-1,3.8-1h0.9c0.2,1,0.4,2.1,0.6,3.3c0.2,1.3,0.6,2.5,1.1,3.9
		c0.5,1.3,1,2.5,1.7,3.6c0.7,1.1,1.5,2,2.4,2.6c0.1-2.1,0.6-4.1,1.6-6c1-1.9,2.2-3.7,3.7-5.2c1.5-1.5,3.1-2.8,4.8-3.9
		c1.8-1,3.5-1.7,5.2-2.1h2c2.9,0,5.3,0.6,7.3,1.9c2,1.3,3.7,3,5.1,5c1.3,2.1,2.4,4.4,3.1,7c0.7,2.6,1.3,5.3,1.7,8
		c0.4,2.7,0.6,5.3,0.7,7.9c0.1,2.5,0.1,4.7,0.1,6.5h-6.5c-0.4-3.6-0.8-7-1.3-10.3c-0.2-1.3-0.4-2.7-0.7-4.2c-0.3-1.5-0.6-2.8-1-4.1
		c-0.4-1.3-0.7-2.5-1.2-3.6c-0.4-1.1-0.9-2-1.4-2.8c-0.2-0.2-0.6-0.6-0.9-1c-0.4-0.4-0.8-0.8-1.2-1.3s-0.8-0.8-1.2-1.1
		c-0.4-0.3-0.6-0.4-0.6-0.4c-1.8-0.5-3.3-0.1-4.7,1c-1.3,1.2-2.5,2.7-3.5,4.7c-1,2-1.8,4.2-2.5,6.7c-0.6,2.5-1.2,4.9-1.6,7.2
		c-0.4,2.3-0.7,4.3-0.9,6c-0.2,1.7-0.3,2.7-0.4,3.1c-1.5,1.1-2.9,1.4-4.2,0.9c-1.3-0.4-2.6-1.4-3.7-2.8c-1.2-1.4-2.2-3.2-3.1-5.4
		c-0.9-2.2-1.8-4.4-2.6-6.9c-0.8-2.4-1.5-4.9-2.1-7.3C1841.6,339.4,1841,337.1,1840.5,335z"/>
	<path class="st0" d="M1915.6,412.9c3.3,0,6.3-0.6,9-1.8c2.6-1.2,4.9-2.9,6.7-5c1.8-2.1,3.2-4.5,4.2-7.3c1-2.7,1.5-5.5,1.5-8.5
		c0-1.5-0.1-3.5-0.2-5.9c-0.1-2.5-0.4-5.1-0.7-8c-0.3-2.9-0.7-5.8-1.3-8.8c-0.6-3-1.3-5.8-2.1-8.5c-0.8-2.7-1.9-5-3.1-7
		c-1.2-2-2.6-3.4-4.3-4.3c-1.6,1.2-3.1,2.3-4.6,3.3c-1.5,1-3,1.8-4.7,2.5c-1.6,0.7-3.3,1.2-5,1.6c-1.7,0.4-3.6,0.6-5.6,0.6
		c-2.6,0-4.8-0.2-6.6-0.7c-1.8-0.5-3.3-1.3-4.6-2.4c-1.2-1.1-2.1-2.6-2.7-4.5c-0.6-1.9-0.9-4.2-0.9-7c0-2,0.5-3.9,1.4-5.8
		c1-1.9,2.2-3.6,3.8-5.3c1.6-1.6,3.4-3.2,5.4-4.5c2-1.4,4.1-2.6,6.2-3.6c2.1-1,4.2-1.8,6.3-2.3c2.1-0.5,3.9-0.8,5.5-0.8
		c1.6,0,2.8,0,3.9,0.1c1,0.1,1.9,0.3,2.6,0.7s1.3,1,1.8,1.8c0.5,0.8,1,1.9,1.5,3.3c1.4,4.7,3,9.7,4.8,15.1
		c1.8,5.4,3.5,10.9,5.1,16.6c1.6,5.7,3,11.4,4.1,17.2c1.1,5.8,1.7,11.3,1.7,16.7c0,4.8-0.7,8.8-2,12.1c-1.3,3.3-3.1,6-5.3,8.2
		c-2.2,2.1-4.7,3.7-7.4,4.9c-2.8,1.1-5.6,1.9-8.4,2.2c-2.8,0.3-5.5,0.4-8.2,0.2c-2.6-0.2-4.9-0.5-6.8-1c-1.9-0.5-3.4-1.1-4.3-1.7
		c-1-0.7-1.2-1.2-0.7-1.7c0.5-0.4,1.9-0.8,4.1-0.9C1907.7,412.4,1911.1,412.5,1915.6,412.9z M1916.8,326.4c-4.4,1-8,2.3-10.7,4
		c-2.7,1.7-4.8,3.5-6.1,5.5c-1.3,1.9-2.1,3.9-2.2,5.8c-0.1,1.9,0.2,3.6,1.1,5c0.8,1.4,2,2.4,3.6,3.1c1.6,0.7,3.4,0.7,5.4,0.1
		c2-0.6,4.2-2,6.5-4.1c2.3-2.1,4.6-5.2,6.9-9.3c0-1,0-2.1,0-3.3c0-1.2-0.1-2.3-0.3-3.3c-0.2-1-0.7-1.8-1.3-2.5
		C1919.1,326.8,1918.1,326.4,1916.8,326.4z"/>
</g>
</svg>
